<?xml version="1.0" encoding="utf-8"?>
<!-- Generator: Adobe Illustrator 16.0.0, SVG Export Plug-In . SVG Version: 6.00 Build 0)  -->
<!DOCTYPE svg PUBLIC "-//W3C//DTD SVG 1.0//EN" "http://www.w3.org/TR/2001/REC-SVG-20010904/DTD/svg10.dtd">
<svg version="1.0" id="Layer_1" xmlns="http://www.w3.org/2000/svg" xmlns:xlink="http://www.w3.org/1999/xlink" x="0px" y="0px"
	 width="3222.352px" height="978.249px" viewBox="0 0 3222.352 978.249" enable-background="new 0 0 3222.352 978.249"
	 xml:space="preserve">
<ellipse id="XMLID_2_" transform="matrix(0.9998 0.0182 -0.0182 0.9998 16.9771 -29.3858)" display="none" fill="#A7A9AC" cx="1627.16" cy="920.464" rx="1595.455" ry="49.999"/>
<g id="XMLID_392_">
	<path id="XMLID_496_" fill="#FFFFFF" d="M2803.388,455.316c-187.868-3.798-153.683,103.138-434.755,114.532
		c-611.229,60.772-1568.391,16.361-1648.154-14.901C563.582,500.603,611.791,435.74,429.766,407.399
		c-72.243-5.216-147.744,20.763-190.555,62.56c-7.071,6.903-3.824,18.97,5.592,21.966l194.786,58.216
		c23.172,6.926,35.921,31.746,28.052,54.615L419.87,756.941c-6.309,20.098-27.74,31.249-47.819,24.881l-190.52-60.419
		c-6.526-2.07-11.71,3.3-12.089,10.137c-4.97,89.578,178.515,269.558,399.357,109.804c0,0,4.152-4.166,11.417-11.457
		c3.626-3.639,8.03-8.058,13.08-13.126c5.363-4.778,9.953-11.472,15.489-18.293c2.726-3.446,5.564-7.037,8.502-10.753
		c3.048-3.639,5.989-7.544,8.349-12.014c4.916-8.767,10.994-17.549,15.645-27.453c3.898-10.23,9.342-20.302,12.299-31.413
		c2.693-11.167,6.735-22.231,7.566-33.939l2.439-17.313c0.126-5.814,0.251-11.606,0.376-17.353
		c0.862-11.521-1.405-22.757-1.961-33.699c-2.224-10.725-3.281-21.362-6.354-30.972c-1.335-4.854-2.634-9.574-3.891-14.141
		c-1.582-4.466-3.109-8.781-4.576-12.924c-2.806-8.336-6.336-15.608-8.97-22.258c-3.152-6.411-5.651-12.146-8.22-16.6
		c-4.769-9.113-8.119-13.967-8.119-13.967s3.523,4.729,8.63,13.68c2.738,4.374,5.445,10.018,8.846,16.348
		c2.896,6.558,6.737,13.752,9.596,22.133c1.528,4.152,3.12,8.478,4.768,12.954c1.324,4.585,2.692,9.323,4.1,14.196
		c3.214,9.652,4.425,20.363,6.799,31.176c0.709,11.041,3.13,22.389,2.413,34.063c-0.055,5.827-0.111,11.701-0.166,17.598
		l-2.25,17.601c-0.976,11.872-5.224,23.068-8.096,34.344c-3.145,11.219-8.773,21.363-12.852,31.647
		c-4.829,9.952-11.074,18.751-16.145,27.524c-2.44,4.474-5.453,8.373-8.567,12.004c-3.005,3.705-5.909,7.284-8.697,10.721
		c-5.6,6.846-10.453,13.377-16.035,17.976c-5.249,4.896-9.825,9.165-13.593,12.681c-7.523,7.018-11.822,11.028-11.822,11.028
		c89.447-69.311,234.95-54.118,468.689-76.323c189.329-16.361,823.93-17.529,1295.792,17.822
		c274.936,11.396,237.537,189.037,471.276,179.688C3103.744,919.289,3121.274,510.245,2803.388,455.316z M1381.609,638.784
		c-19.749,0.494-47.969,1.564-81.841,1.801c-33.869,0.209-73.401,0.751-115.746-0.071c-42.344-0.751-87.512-1.958-132.663-3.879
		c-45.132-2.334-90.235-5.39-132.454-9.162c-42.229-3.696-81.487-8.957-115.006-14.231c-33.511-5.359-61.168-11.746-80.055-17.831
		c-9.45-3.02-16.627-6.187-21.24-8.844c-4.618-2.786-6.375-5.031-6.375-5.031s1.967,2.157,6.639,4.547
		c4.721,2.356,12.055,4.851,21.539,7.431c18.978,5.25,46.844,9.641,80.317,14.058c33.497,4.418,72.8,7.786,114.921,11.081
		c42.124,3.328,87.143,5.916,132.197,7.783c45.032,2.334,90.107,4.039,132.382,5.214c42.285,1.165,81.752,2.251,115.58,3.184
		c67.702,1.681,112.836,2.801,112.836,2.801S1401.356,638.051,1381.609,638.784z M2482.205,765.601
		c-4.753-2.291-12.121-4.683-21.64-7.131c-19.05-4.985-46.974-8.989-80.504-12.94c-33.557-3.953-72.901-6.775-115.064-9.485
		c-42.166-2.743-87.217-4.706-132.293-5.948c-45.06-1.707-90.154-2.786-132.441-3.374c-42.297-0.577-81.775-1.116-115.613-1.578
		c-67.719-0.741-112.863-1.234-112.863-1.234s11.276-0.575,31.011-1.581c19.74-0.77,47.942-2.231,81.808-2.938
		c33.863-0.679,73.385-1.77,115.736-1.535c42.351,0.163,87.53,0.743,132.704,2.036c45.16,1.708,90.301,4.138,132.569,7.322
		c42.274,3.109,81.604,7.825,115.191,12.634c33.582,4.894,61.326,10.896,80.296,16.718c9.491,2.888,16.712,5.955,21.36,8.548
		c4.657,2.722,6.444,4.941,6.444,4.941S2486.91,767.925,2482.205,765.601z M2582.121,532.245
		c-3.904,3.776-8.309,8.717-13.275,14.404c-4.716,5.918-10.193,12.451-15.313,20.226c-5.642,7.416-10.23,16.416-15.603,25.593
		c-2.352,4.765-4.442,9.824-6.759,14.9c-1.127,2.553-2.267,5.133-3.417,7.737c-0.859,2.715-1.729,5.456-2.604,8.22
		c-1.682,5.544-3.689,11.101-5.181,16.862c-1.087,5.861-2.188,11.794-3.298,17.773c-1.423,5.938-1.735,12.06-1.953,18.214
		l-0.955,18.467c1.235,12.267,1.111,24.732,3.397,36.676c2.872,11.81,4.254,23.85,8.19,34.779
		c3.901,10.941,7.674,21.52,11.251,31.549c4.751,9.545,9.243,18.57,13.388,26.9c2.085,4.162,4.083,8.152,5.982,11.945
		c2.258,3.594,4.398,7.002,6.411,10.205c4.029,6.414,7.542,12.007,10.435,16.611c5.793,9.223,9.104,14.492,9.104,14.492
		s-3.488-5.15-9.593-14.162c-3.057-4.514-6.769-9.993-11.025-16.278c-2.13-3.147-4.397-6.495-6.788-10.024
		c-2.083-3.711-4.026-7.757-6.191-11.901c-4.268-8.328-8.892-17.351-13.782-26.894c-3.726-10.066-7.653-20.681-11.718-31.661
		c-4.098-10.982-5.655-23.13-8.693-35.054c-2.447-12.062-2.512-24.701-3.865-37.15l1.185-18.748
		c0.297-6.243,0.692-12.445,2.201-18.459c1.198-6.049,2.387-12.049,3.561-17.978c1.577-5.821,3.676-11.431,5.445-17.021
		c0.92-2.784,1.833-5.546,2.737-8.282c1.193-2.621,2.375-5.218,3.545-7.786c2.4-5.106,4.576-10.19,7.008-14.973
		c5.532-9.211,10.271-18.225,16.045-25.637c5.191-7.818,10.959-14.207,15.908-19.973c5.189-5.547,9.771-10.345,13.816-13.997
		c7.941-7.481,13.061-11.059,13.061-11.059S2589.782,524.515,2582.121,532.245z M2914.922,758.421l-82.497,77.667
		c-5.897,5.553-14.309,7.537-22.066,5.205l-108.511-32.61c-7.758-2.332-13.682-8.624-15.541-16.508l-26.014-110.278
		c-1.859-7.884,0.628-16.16,6.525-21.713l82.497-77.668c5.897-5.552,14.31-7.536,22.067-5.205l108.51,32.611
		c7.758,2.33,13.682,8.624,15.542,16.508l26.013,110.277C2923.307,744.591,2920.821,752.869,2914.922,758.421z"/>
	<path id="XMLID_487_" fill="#FFFFFF" d="M3144.258,612.58c-4.234-40.677-20.967-78.953-50.361-107.386
		c-217.904-210.761-588.129-228.195-885.457-227.605C2034,121.214,1754.927,8.341,1573.841,1.281
		C802.028-19.165,623.131,212.55,38.734,171.659L93.556,277.38C51.988,313.753,9.092,421.102,0.436,503.993
		c-1.785,17.098,1.954,34.229,10.533,49.124c36.535,63.441,87.017,158.251,110.831,204.391
		c-25.38-195.903-80.765-174.682,50.256-367.338c12.851-18.897,32.861-31.774,55.405-35.515
		c193.398-32.085,611.625-44.989,852.86,25.148c-200.345-118.695-564.86-122.694-893.297-68.284
		c-18.545,3.072-35.509,12.318-48.054,26.318c-35.081,39.149-81.316,120.028-97.746,192.067
		c2.492-106.327,68.468-209.95,111.663-240.685l-35.779-60.059C517.62,271.099,1144.488,1.281,1612.85,68.882
		c205.133,28.745,381.47,145.133,481.389,226.674l-56.996-2.65c-137.336-124.046-230.862-74.329-230.862-74.329
		c122.076,11.813,149.642,86.635,149.642,86.635c-47.255,0-649.762,3.938-783.652-23.628
		c177.208,63.008,545.931,109.939,1004.609,89.418c146.682,1.37,311.867-10.66,470.554,6.575
		c-54.32,16.819-104.905,53.071-150.455,109.069c0,0,151.54-123.535,355.211-65.202c73.44,25.612,142.575,63.037,204.288,117.668
		c24.949,22.085,42.223,51.718,48.937,84.354c10.859,52.791,20.672,131.644,1.711,195.511
		C3142.54,771.436,3151.968,686.627,3144.258,612.58z"/>
	<path id="XMLID_407_" fill="#FFFFFF" d="M2664.687,459.172c86.893-34.502,310.514-47.28,394.852,214.676
		C3042.926,498.786,2851.25,360.779,2664.687,459.172z"/>
	<path id="XMLID_406_" fill="#FFFFFF" d="M506.848,402.948C419.955,368.446,187.389,348,111.997,617.624
		C128.608,442.561,304.95,296.035,506.848,402.948z"/>
	<path id="XMLID_428_" fill="#FFFFFF" d="M861.661,478.34c0,0,20.608,1.659,56.673,4.561c18.002,1.898,39.944,2.487,64.968,4.407
		c24.995,1.925,53.383,2.776,84.233,4.507c15.423,0.891,31.509,1.548,48.177,1.971c16.647,0.64,33.858,1.301,51.551,1.98
		c35.399,0.925,72.73,1.9,111.349,2.909c38.628,0.577,78.543,1.175,119.102,1.78c40.557,0.729,81.77,0.776,122.981,0.775
		c41.209,0.333,82.428,0.135,122.998-0.039c40.574-0.367,80.504-0.728,119.146-1.078c38.646-0.588,76.005-1.156,111.431-1.694
		c35.432-0.766,68.932-1.489,99.854-2.157c30.925-0.947,59.273-1.814,84.399-2.584c25.137-0.963,47.052-1.801,65.098-2.492
		c36.125-1.669,56.768-2.623,56.768-2.623s-20.441,3.163-56.213,8.699c-35.859,4.911-87.224,11.129-149.049,16.58
		c-30.918,2.425-64.419,5.521-99.906,7.451c-35.479,2.201-72.905,4.547-111.659,5.816c-38.744,1.643-78.795,2.971-119.506,3.693
		c-40.711,0.513-82.073,1.124-123.439,1.078c-41.367-0.357-82.73-0.766-123.445-1.848c-40.719-0.552-80.763-2.903-119.515-4.439
		c-38.752-1.799-76.176-4.484-111.643-7.054c-35.455-3.042-68.975-5.48-99.823-9.248c-30.87-3.405-59.13-6.479-84.128-10.374
		c-24.979-3.691-46.811-6.48-64.542-10.005C881.973,482.185,861.661,478.34,861.661,478.34z"/>
</g>
</svg>
